#N canvas 24 24 1416 774 10;
#X floatatom 42 70 5 0 0 0 - - -;
#X floatatom 87 70 5 0 0 0 - - -;
#X obj 132 136 s velocity;
#X obj 42 138 pack 0 0;
#X obj 246 69 bng 15 250 50 0 empty empty empty 17 7 0 10 -262144 -1
-1;
#X obj 247 135 s pitch;
#X obj 259 789 noteout 3;
#X obj 321 788 noteout 3;
#X obj 384 791 noteout 3;
#X obj 448 792 noteout 3;
#X obj 508 789 noteout 3;
#X obj 571 789 noteout 3;
#X obj 634 789 noteout 3;
#X obj 75 503 route 20 21 22 23 24 25 26 27 28 29;
#X obj 168 472 route 30 31 32 33 34 35 36 37 38 39;
#X obj 289 501 route 40 41 42 43 44 45 46 47 48 49;
#X obj 402 466 route 50 51 52 53 54 55 56 57 58 59;
#X obj 519 500 route 60 61 62 63 64 65 66 67 68 69;
#X obj 643 473 route 70 71 72 73 74 75 76 77 78 79;
#X obj 768 502 route 80 81 82 83 84 85 86 87 88 89;
#X obj 697 789 noteout 3;
#X obj 1081 761 noteout 3;
#X obj 862 474 route 90 91 92 93 94 95 96 97 98 99;
#X obj 998 454 route 100 101 102 103 104 105 106 107 108 109;
#X obj 93 533 keyR;
#X obj 105 569 keyR;
#X obj 116 532 keyR;
#X obj 125 570 keyR;
#X obj 143 570 keyR;
#X obj 154 532 keyR;
#X obj 164 569 keyR;
#X obj 176 532 keyR;
#X obj 185 570 keyR;
#X obj 205 570 keyR;
#X obj 215 531 keyR;
#X obj 225 570 keyR;
#X obj 236 531 keyR;
#X obj 245 571 keyR;
#X obj 254 531 keyR;
#X obj 263 570 keyR;
#X obj 283 570 keyR;
#X obj 294 533 keyR;
#X obj 303 569 keyR;
#X obj 314 533 keyR;
#X obj 323 570 keyR;
#X obj 343 570 keyR;
#X obj 353 534 keyR;
#X obj 363 569 keyR;
#X obj 373 534 keyR;
#X obj 383 570 keyR;
#X obj 393 533 keyR;
#X obj 403 570 keyR;
#X obj 423 570 keyR;
#X obj 433 535 keyR;
#X obj 443 570 keyR;
#X obj 453 535 keyR;
#X obj 463 569 keyR;
#X obj 483 570 keyR;
#X obj 493 533 keyR;
#X obj 503 570 keyR;
#X obj 513 533 keyR;
#X obj 523 569 keyR;
#X obj 533 534 keyR;
#X obj 543 569 keyR;
#X obj 563 570 keyR;
#X obj 573 532 keyR;
#X obj 583 570 keyR;
#X obj 591 532 keyR;
#X obj 603 570 keyR;
#X obj 621 570 keyR;
#X obj 633 532 keyR;
#X obj 641 569 keyR;
#X obj 653 531 keyR;
#X obj 661 568 keyR;
#X obj 673 531 keyR;
#X obj 681 569 keyR;
#X obj 701 569 keyR;
#X obj 711 533 keyR;
#X obj 721 570 keyR;
#X obj 731 533 keyR;
#X obj 741 569 keyR;
#X obj 759 570 keyR;
#X obj 768 533 keyR;
#X obj 779 571 keyR;
#X obj 788 533 keyR;
#X obj 799 569 keyR;
#X obj 809 533 keyR;
#X obj 819 569 keyR;
#X obj 837 568 keyR;
#X obj 848 532 keyR;
#X obj 857 569 keyR;
#X obj 868 532 keyR;
#X obj 877 569 keyR;
#X obj 897 569 keyR;
#X obj 908 531 keyR;
#X obj 917 569 keyR;
#X obj 928 531 keyR;
#X obj 937 569 keyR;
#X obj 948 531 keyR;
#X obj 957 569 keyR;
#X obj 977 569 keyR;
#X obj 988 532 keyR;
#X obj 997 570 keyR;
#X obj 1008 534 keyR;
#X obj 1017 572 keyR;
#X obj 1039 570 keyR;
#X obj 1049 532 keyR;
#X obj 1059 570 keyR;
#X obj 1069 532 keyR;
#X obj 1079 570 keyR;
#X obj 1089 532 keyR;
#X obj 1099 571 keyR;
#X obj 1119 570 keyR;
#X obj 1129 534 keyR;
#X obj 78 544 hsl 1280 25 0 127 0 0 empty empty empty -2 -8 0 10 -1
-1 -1 0 1;
#X obj 72 414 hsl 1280 45 0 127 0 0 empty empty empty -2 -8 0 10 -1
-1 -1 0 1;
#X obj 945 124 cyclone/zl scramble;
#X obj 770 7 loadbang;
#X floatatom 1591 58 10 0 0 0 - - -;
#X obj 956 192 list store;
#X obj 1363 80 cyclone/zl slice 1;
#X obj 1360 113 s shortList;
#X obj 776 39 s firstBang;
#X obj 1553 330 +;
#X msg 1526 287 1;
#X floatatom 1608 302 5 0 0 0 - - -;
#X msg 1634 236 stop;
#X msg 1506 205 1;
#X obj 1575 356 spigot;
#X msg 1605 258 0;
#X obj 1620 334 < 127;
#X obj 1702 260 >= 127;
#X obj 1629 211 bng 15 250 50 0 empty empty empty 17 7 0 10 -262144
-1 -1;
#X obj 1539 417 pack 0 0;
#X obj 1533 447 unpack f f;
#X floatatom 1470 468 5 0 0 0 - - -;
#X floatatom 1580 475 5 0 0 0 - - -;
#X obj 351 38 unpack 0 0;
#X obj 1679 306 spigot;
#X obj 1673 339 bng 15 250 50 0 empty empty empty 17 7 0 10 -262144
-1 -1;
#X obj 1348 53 bng 15 250 50 0 empty empty empty 17 7 0 10 -262144
-1 -1;
#X obj 1463 113 s excluded;
#X obj 642 62 pack 0 -1;
#X obj 645 96 pack 0 -2;
#X obj 1213 573 cnv 15 150 150 empty empty empty 20 12 0 14 -261234
-66577 0;
#X obj 885 787 cyclone/midiformat;
#X obj 1581 785 cyclone/seq;
#X msg 1449 607 record;
#X msg 1521 608 stop;
#X msg 1534 685 write;
#X obj 1691 768 bng 15 250 50 0 empty empty empty 17 7 0 10 -262144
-1 -1;
#X obj 1678 619 tgl 15 0 empty empty empty 17 7 0 10 -262144 -1 -1
0 1;
#X msg 1724 768 0;
#X obj 1399 677 bng 15 250 50 0 empty empty empty 17 7 0 10 -262144
-1 -1;
#X obj 1679 652 metro 500;
#X obj 1679 673 tgl 15 0 empty empty empty 17 7 0 10 -262144 -1 -1
0 1;
#X msg 1679 742 color \$1;
#X obj 1679 707 expr if($f1==1 \, 13 \, 0);
#X obj 1241 647 bng 15 250 50 0 empty empty empty 17 7 0 10 -258699
-1 -1;
#X obj 1241 597 bng 15 250 50 0 empty empty empty 17 7 0 10 -261689
-1 -1;
#X text 1414 583 STOP;
#X msg 1406 518 color 13;
#X msg 1487 519 color 3;
#X msg 1634 521 color 6;
#X obj 1173 580 vsl 15 128 0 127 0 0 empty empty empty 0 -9 0 10 -225271
-1 -1 0 1;
#X floatatom 27 431 5 0 0 0 - - -;
#X msg 27 462 color 22;
#X msg 1595 609 color 0;
#X obj 1180 734 pack 0 1;
#X obj 1798 465 cyclone/zl nth 3;
#X obj 1829 329 +;
#X msg 1827 290 1;
#X floatatom 1904 305 5 0 0 0 - - -;
#X msg 1866 207 stop;
#X msg 1815 209 1;
#X obj 1904 377 spigot;
#X msg 1884 243 0;
#X obj 1921 337 < 127;
#X obj 1968 243 >= 127;
#X obj 1966 283 spigot;
#X obj 1968 332 bng 15 250 50 0 empty empty empty 17 7 0 10 -262144
-1 -1;
#X obj 1855 402 bng 15 250 50 0 empty empty empty 17 7 0 10 -262144
-1 -1;
#X obj 835 269 pack 0 1;
#X obj 843 305 pack 0 0;
#X obj 2130 455 cyclone/zl nth 3;
#X obj 2112 338 +;
#X msg 2085 295 1;
#X floatatom 2174 310 5 0 0 0 - - -;
#X msg 2124 212 stop;
#X msg 2065 213 1;
#X obj 2160 383 spigot;
#X msg 2164 266 0;
#X obj 2179 342 < 127;
#X obj 2216 283 >= 127;
#X obj 2188 219 bng 15 250 50 0 empty empty empty 17 7 0 10 -262144
-1 -1;
#X obj 2216 318 spigot;
#X obj 2227 355 bng 15 250 50 0 empty empty empty 17 7 0 10 -262144
-1 -1;
#X obj 2108 380 bng 15 250 50 0 empty empty empty 17 7 0 10 -262144
-1 -1;
#X obj 2394 333 +;
#X floatatom 2456 305 5 0 0 0 - - -;
#X msg 2406 207 stop;
#X msg 2347 208 1;
#X obj 2442 378 spigot;
#X msg 2446 261 0;
#X obj 2461 337 < 127;
#X obj 2497 260 >= 127;
#X obj 2470 214 bng 15 250 50 0 empty empty empty 17 7 0 10 -262144
-1 -1;
#X obj 2497 295 spigot;
#X obj 2508 332 bng 15 250 50 0 empty empty empty 17 7 0 10 -262144
-1 -1;
#X obj 2395 402 bng 15 250 50 0 empty empty empty 17 7 0 10 -262144
-1 -1;
#X obj 1348 753 spigot;
#X msg 2195 510 0;
#X msg 2175 609 1;
#X obj 2328 485 loadbang;
#X obj 782 370 cyclone/midiformat;
#X obj 569 232 pack 0 0;
#X obj 565 259 spigot;
#X msg 666 247 0;
#X msg 699 247 1;
#X msg 860 189 70;
#X obj 572 296 spigot;
#X obj 1349 782 spigot;
#X obj 1037 796 print modified;
#X obj 659 326 print original;
#X msg 1975 373 0;
#X msg 2367 290 1;
#X obj 1798 499 print loop1;
#X obj 2130 486 print loop2;
#X msg 1774 181 0;
#X obj 1357 141 print shortList;
#X obj 1486 144 print excluded;
#X obj 1823 248 metro 5;
#X obj 2081 253 metro 5;
#X obj 2363 248 metro 5;
#X msg 945 27 list 1 2 3 4 5 6 7 8 9 10 11 12 13 14 15 16 17 18 19
20 21 22 23 24 25 26 27 28 29 30 31 32 33 34 35 36 37 38 39 40 41 42
43 44 45 46 47 48 49 50 51 52 53 54 55 56 57 58 59 60 61 62 63 64 65
66 67 68 69 70 71 72 73 74 75 76 77 78 79 80 81 82 83 84 85 86 87 88
89 90 91 92 93 94 95 96 97 98 99 100 101 102 103 104 105 106 107 108
109 110 111 112 113 114 115 116 117 118 119 120 121 122 123 124 125
126 127;
#X msg 2019 192 127;
#X msg 2303 173 0;
#X obj 1686 405 list prepend 1 2;
#X obj 1989 419 list prepend 1 2;
#X obj 1264 734 / 127;
#X obj 1260 775 * 100;
#X obj 1214 702 cnv 15 40 20 empty empty % 20 12 0 14 -261682 -66577
0;
#X floatatom 1214 706 5 0 0 0 - - -;
#X obj 1222 771 int;
#X obj 353 292 print;
#X obj 313 200 ctlin 11;
#X obj 453 257 rescale;
#X msg 377 202 98;
#X msg 409 202 127;
#X msg 439 202 0;
#X msg 469 202 127;
#X obj 485 299 int;
#X obj 1522 245 metro 5;
#X obj 1807 145 bng 15 250 50 0 empty empty empty 17 7 0 10 -262144
-1 -1;
#X obj 1859 141 spigot;
#X obj 1774 91 expr if($f1==0 \, 0 \, 1);
#X obj 2009 20 bng 15 250 50 0 empty empty empty 17 7 0 10 -262144
-1 -1;
#X msg 2013 59 1;
#X obj 2024 108 +;
#X floatatom 2088 22 5 0 0 0 - - -;
#X obj 2075 63 expr if($f1 > 2 \, 1 \, 0);
#X obj 2077 101 spigot;
#X obj 2257 45 select 1;
#X obj 2252 93 bng 15 250 50 0 empty empty empty 17 7 0 10 -262144
-1 -1;
#X obj 2304 102 bng 15 250 50 0 empty empty empty 17 7 0 10 -262144
-1 -1;
#X obj 2235 122 bng 15 250 50 0 empty empty empty 17 7 0 10 -262144
-1 -1;
#X obj 741 119 ctlin 64;
#X obj 741 167 pack 0 64;
#X obj 1010 236 bng 15 250 50 0 empty empty empty 17 7 0 10 -262144
-1 -1;
#X obj 1133 279 ctlout;
#X msg 1171 248 64;
#X msg 1209 237 3;
#X obj 814 120 ctlin 1;
#X obj 814 168 pack 0 1;
#X obj 1204 284 ctlout;
#X msg 1242 253 1;
#X msg 1280 242 3;
#X obj 335 765 print;
#X obj 207 26 ctlout;
#X obj 42 21 notein 1;
#X text 1268 595 = NORMAL KEY;
#X text 1268 647 = REMAPPED KEY;
#X obj 2407 86 noteout 1;
#X connect 0 0 3 0;
#X connect 1 0 3 1;
#X connect 3 0 13 0;
#X connect 3 0 14 0;
#X connect 3 0 15 0;
#X connect 3 0 16 0;
#X connect 3 0 17 0;
#X connect 3 0 18 0;
#X connect 3 0 19 0;
#X connect 3 0 22 0;
#X connect 3 0 23 0;
#X connect 13 0 24 0;
#X connect 13 1 25 0;
#X connect 13 2 26 0;
#X connect 13 3 27 0;
#X connect 13 4 28 0;
#X connect 13 5 29 0;
#X connect 13 6 30 0;
#X connect 13 7 31 0;
#X connect 13 8 32 0;
#X connect 13 9 33 0;
#X connect 14 0 34 0;
#X connect 14 1 35 0;
#X connect 14 2 36 0;
#X connect 14 3 37 0;
#X connect 14 4 38 0;
#X connect 14 5 39 0;
#X connect 14 6 40 0;
#X connect 14 7 41 0;
#X connect 14 8 42 0;
#X connect 14 9 43 0;
#X connect 15 0 44 0;
#X connect 15 1 45 0;
#X connect 15 2 46 0;
#X connect 15 3 47 0;
#X connect 15 4 48 0;
#X connect 15 5 49 0;
#X connect 15 6 50 0;
#X connect 15 7 51 0;
#X connect 15 8 52 0;
#X connect 15 9 53 0;
#X connect 16 0 54 0;
#X connect 16 1 55 0;
#X connect 16 2 56 0;
#X connect 16 3 57 0;
#X connect 16 4 58 0;
#X connect 16 5 59 0;
#X connect 16 6 60 0;
#X connect 16 7 61 0;
#X connect 16 8 62 0;
#X connect 16 9 63 0;
#X connect 17 0 64 0;
#X connect 17 1 65 0;
#X connect 17 2 66 0;
#X connect 17 3 67 0;
#X connect 17 4 68 0;
#X connect 17 5 69 0;
#X connect 17 6 70 0;
#X connect 17 7 71 0;
#X connect 17 8 72 0;
#X connect 17 9 73 0;
#X connect 18 0 74 0;
#X connect 18 1 75 0;
#X connect 18 2 76 0;
#X connect 18 3 77 0;
#X connect 18 4 78 0;
#X connect 18 5 79 0;
#X connect 18 6 80 0;
#X connect 18 7 81 0;
#X connect 18 8 82 0;
#X connect 18 9 83 0;
#X connect 19 0 84 0;
#X connect 19 1 85 0;
#X connect 19 2 86 0;
#X connect 19 3 87 0;
#X connect 19 4 88 0;
#X connect 19 5 89 0;
#X connect 19 6 90 0;
#X connect 19 7 91 0;
#X connect 19 8 92 0;
#X connect 19 9 93 0;
#X connect 22 0 94 0;
#X connect 22 1 95 0;
#X connect 22 2 96 0;
#X connect 22 3 97 0;
#X connect 22 4 98 0;
#X connect 22 5 99 0;
#X connect 22 6 100 0;
#X connect 22 7 101 0;
#X connect 22 8 102 0;
#X connect 22 9 103 0;
#X connect 23 0 104 0;
#X connect 23 1 105 0;
#X connect 23 2 106 0;
#X connect 23 3 107 0;
#X connect 23 4 108 0;
#X connect 23 5 109 0;
#X connect 23 6 110 0;
#X connect 23 7 111 0;
#X connect 23 8 112 0;
#X connect 23 9 113 0;
#X connect 24 0 6 0;
#X connect 24 0 145 0;
#X connect 25 0 6 0;
#X connect 25 0 145 0;
#X connect 26 0 6 0;
#X connect 26 0 145 0;
#X connect 27 0 6 0;
#X connect 27 0 145 0;
#X connect 28 0 6 0;
#X connect 28 0 145 0;
#X connect 29 0 6 0;
#X connect 29 0 145 0;
#X connect 30 0 6 0;
#X connect 30 0 145 0;
#X connect 31 0 6 0;
#X connect 31 0 145 0;
#X connect 32 0 6 0;
#X connect 32 0 145 0;
#X connect 33 0 6 0;
#X connect 33 0 145 0;
#X connect 34 0 7 0;
#X connect 34 0 145 0;
#X connect 35 0 7 0;
#X connect 35 0 145 0;
#X connect 36 0 7 0;
#X connect 36 0 145 0;
#X connect 37 0 7 0;
#X connect 37 0 145 0;
#X connect 38 0 7 0;
#X connect 38 0 145 0;
#X connect 39 0 7 0;
#X connect 39 0 145 0;
#X connect 40 0 7 0;
#X connect 40 0 145 0;
#X connect 41 0 7 0;
#X connect 41 0 145 0;
#X connect 42 0 7 0;
#X connect 42 0 145 0;
#X connect 43 0 7 0;
#X connect 43 0 145 0;
#X connect 44 0 8 0;
#X connect 44 0 145 0;
#X connect 45 0 8 0;
#X connect 45 0 145 0;
#X connect 46 0 8 0;
#X connect 46 0 145 0;
#X connect 47 0 8 0;
#X connect 47 0 145 0;
#X connect 48 0 8 0;
#X connect 48 0 145 0;
#X connect 49 0 8 0;
#X connect 49 0 277 0;
#X connect 49 0 145 0;
#X connect 50 0 8 0;
#X connect 50 0 145 0;
#X connect 51 0 8 0;
#X connect 51 0 145 0;
#X connect 52 0 8 0;
#X connect 52 0 145 0;
#X connect 53 0 8 0;
#X connect 53 0 145 0;
#X connect 54 0 9 0;
#X connect 54 0 145 0;
#X connect 55 0 9 0;
#X connect 55 0 145 0;
#X connect 56 0 9 0;
#X connect 56 0 145 0;
#X connect 57 0 9 0;
#X connect 57 0 145 0;
#X connect 58 0 9 0;
#X connect 58 0 145 0;
#X connect 59 0 9 0;
#X connect 59 0 145 0;
#X connect 60 0 9 0;
#X connect 60 0 145 0;
#X connect 61 0 9 0;
#X connect 61 0 145 0;
#X connect 62 0 9 0;
#X connect 62 0 145 0;
#X connect 63 0 9 0;
#X connect 63 0 145 0;
#X connect 64 0 10 0;
#X connect 64 0 145 0;
#X connect 65 0 10 0;
#X connect 65 0 145 0;
#X connect 66 0 10 0;
#X connect 66 0 145 0;
#X connect 67 0 10 0;
#X connect 67 0 145 0;
#X connect 68 0 10 0;
#X connect 68 0 145 0;
#X connect 69 0 10 0;
#X connect 69 0 145 0;
#X connect 70 0 10 0;
#X connect 70 0 145 0;
#X connect 71 0 10 0;
#X connect 71 0 145 0;
#X connect 72 0 10 0;
#X connect 72 0 145 0;
#X connect 73 0 10 0;
#X connect 73 0 145 0;
#X connect 74 0 11 0;
#X connect 74 0 145 0;
#X connect 75 0 11 0;
#X connect 75 0 145 0;
#X connect 76 0 11 0;
#X connect 76 0 145 0;
#X connect 77 0 11 0;
#X connect 77 0 145 0;
#X connect 78 0 11 0;
#X connect 78 0 145 0;
#X connect 79 0 11 0;
#X connect 79 0 145 0;
#X connect 80 0 11 0;
#X connect 80 0 145 0;
#X connect 81 0 11 0;
#X connect 81 0 145 0;
#X connect 82 0 11 0;
#X connect 82 0 145 0;
#X connect 83 0 11 0;
#X connect 83 0 145 0;
#X connect 84 0 12 0;
#X connect 84 0 145 0;
#X connect 85 0 12 0;
#X connect 85 0 145 0;
#X connect 86 0 12 0;
#X connect 86 0 145 0;
#X connect 87 0 12 0;
#X connect 87 0 145 0;
#X connect 88 0 12 0;
#X connect 88 0 145 0;
#X connect 89 0 12 0;
#X connect 89 0 145 0;
#X connect 90 0 12 0;
#X connect 90 0 145 0;
#X connect 91 0 12 0;
#X connect 91 0 145 0;
#X connect 92 0 12 0;
#X connect 92 0 145 0;
#X connect 93 0 12 0;
#X connect 93 0 145 0;
#X connect 94 0 20 0;
#X connect 94 0 145 0;
#X connect 95 0 20 0;
#X connect 95 0 145 0;
#X connect 96 0 20 0;
#X connect 96 0 145 0;
#X connect 97 0 20 0;
#X connect 97 0 145 0;
#X connect 98 0 20 0;
#X connect 98 0 145 0;
#X connect 99 0 20 0;
#X connect 99 0 145 0;
#X connect 100 0 20 0;
#X connect 100 0 145 0;
#X connect 101 0 20 0;
#X connect 101 0 145 0;
#X connect 102 0 20 0;
#X connect 102 0 145 0;
#X connect 103 0 20 0;
#X connect 103 0 145 0;
#X connect 104 0 21 0;
#X connect 104 0 145 0;
#X connect 105 0 21 0;
#X connect 105 0 145 0;
#X connect 106 0 21 0;
#X connect 106 0 145 0;
#X connect 107 0 21 0;
#X connect 107 0 145 0;
#X connect 108 0 21 0;
#X connect 108 0 145 0;
#X connect 109 0 21 0;
#X connect 109 0 145 0;
#X connect 110 0 21 0;
#X connect 110 0 145 0;
#X connect 111 0 21 0;
#X connect 111 0 145 0;
#X connect 112 0 21 0;
#X connect 112 0 145 0;
#X connect 113 0 21 0;
#X connect 113 0 145 0;
#X connect 116 0 119 1;
#X connect 116 0 237 1;
#X connect 116 0 238 1;
#X connect 116 0 228 0;
#X connect 117 0 122 0;
#X connect 117 0 217 0;
#X connect 117 0 234 0;
#X connect 117 0 250 0;
#X connect 117 0 249 0;
#X connect 117 0 248 0;
#X connect 117 0 247 0;
#X connect 117 0 271 0;
#X connect 117 0 270 0;
#X connect 117 0 276 0;
#X connect 117 0 275 0;
#X connect 118 0 120 1;
#X connect 118 0 140 0;
#X connect 118 0 127 0;
#X connect 119 0 120 0;
#X connect 120 0 121 0;
#X connect 120 0 229 0;
#X connect 120 1 141 0;
#X connect 123 0 125 0;
#X connect 124 0 123 0;
#X connect 125 0 133 0;
#X connect 125 0 130 0;
#X connect 125 0 131 0;
#X connect 125 0 128 0;
#X connect 125 0 142 0;
#X connect 125 0 143 0;
#X connect 126 0 252 0;
#X connect 127 0 129 0;
#X connect 127 0 252 0;
#X connect 128 0 123 1;
#X connect 129 0 123 1;
#X connect 129 0 125 0;
#X connect 130 0 128 1;
#X connect 131 0 138 1;
#X connect 131 0 138 0;
#X connect 132 0 129 0;
#X connect 133 0 134 0;
#X connect 134 0 135 0;
#X connect 134 1 136 0;
#X connect 137 0 5 0;
#X connect 137 0 0 0;
#X connect 137 1 1 0;
#X connect 137 1 2 0;
#X connect 138 0 126 0;
#X connect 138 0 139 0;
#X connect 139 0 256 0;
#X connect 140 0 119 0;
#X connect 142 0 137 0;
#X connect 143 0 137 0;
#X connect 145 0 210 0;
#X connect 147 0 146 0;
#X connect 147 0 150 0;
#X connect 148 0 167 0;
#X connect 148 0 146 0;
#X connect 148 0 152 0;
#X connect 148 0 153 0;
#X connect 149 0 146 0;
#X connect 150 0 151 0;
#X connect 151 0 154 0;
#X connect 152 0 151 0;
#X connect 153 0 149 0;
#X connect 154 0 155 0;
#X connect 155 0 157 0;
#X connect 156 0 153 0;
#X connect 157 0 156 0;
#X connect 158 0 147 0;
#X connect 158 0 212 0;
#X connect 158 0 217 0;
#X connect 158 0 234 0;
#X connect 159 0 148 0;
#X connect 161 0 158 0;
#X connect 162 0 159 0;
#X connect 163 0 164 0;
#X connect 164 0 168 0;
#X connect 164 0 239 0;
#X connect 164 0 118 0;
#X connect 165 0 166 0;
#X connect 166 0 115 0;
#X connect 167 0 153 0;
#X connect 168 0 221 0;
#X connect 168 0 220 0;
#X connect 169 0 182 0;
#X connect 169 0 183 0;
#X connect 170 0 172 0;
#X connect 171 0 170 0;
#X connect 172 0 175 0;
#X connect 172 0 169 1;
#X connect 172 0 181 0;
#X connect 172 0 178 0;
#X connect 172 0 177 0;
#X connect 173 0 231 0;
#X connect 174 0 176 0;
#X connect 174 0 231 0;
#X connect 175 0 170 1;
#X connect 176 0 172 0;
#X connect 176 0 170 1;
#X connect 177 0 175 1;
#X connect 178 0 179 1;
#X connect 178 0 179 0;
#X connect 179 0 173 0;
#X connect 179 0 180 0;
#X connect 180 0 224 0;
#X connect 180 0 235 0;
#X connect 181 0 237 0;
#X connect 182 0 137 0;
#X connect 183 0 137 0;
#X connect 184 0 182 0;
#X connect 184 0 183 0;
#X connect 185 0 187 0;
#X connect 186 0 185 0;
#X connect 187 0 190 0;
#X connect 187 0 184 1;
#X connect 187 0 197 0;
#X connect 187 0 193 0;
#X connect 187 0 192 0;
#X connect 188 0 232 0;
#X connect 189 0 191 0;
#X connect 189 0 232 0;
#X connect 190 0 185 1;
#X connect 191 0 187 0;
#X connect 191 0 185 1;
#X connect 192 0 190 1;
#X connect 193 0 195 1;
#X connect 193 0 195 0;
#X connect 194 0 191 0;
#X connect 195 0 196 0;
#X connect 195 0 188 0;
#X connect 196 0 236 0;
#X connect 197 0 238 0;
#X connect 198 0 199 0;
#X connect 199 0 202 0;
#X connect 199 0 169 1;
#X connect 199 0 209 0;
#X connect 199 0 204 0;
#X connect 199 0 205 0;
#X connect 200 0 233 0;
#X connect 201 0 203 0;
#X connect 201 0 233 0;
#X connect 202 0 198 1;
#X connect 203 0 199 0;
#X connect 203 0 198 1;
#X connect 204 0 202 1;
#X connect 205 0 207 1;
#X connect 205 0 207 0;
#X connect 206 0 203 0;
#X connect 207 0 208 0;
#X connect 207 0 200 0;
#X connect 208 0 211 0;
#X connect 208 0 127 0;
#X connect 208 0 218 0;
#X connect 209 0 237 0;
#X connect 210 0 146 0;
#X connect 211 0 210 1;
#X connect 211 0 221 1;
#X connect 212 0 210 1;
#X connect 212 0 221 1;
#X connect 213 0 212 0;
#X connect 214 0 146 0;
#X connect 215 0 216 0;
#X connect 216 0 214 0;
#X connect 217 0 216 1;
#X connect 217 0 220 1;
#X connect 218 0 216 1;
#X connect 218 0 220 1;
#X connect 219 0 182 0;
#X connect 219 0 183 0;
#X connect 220 0 214 2;
#X connect 221 0 145 2;
#X connect 225 0 198 0;
#X connect 228 0 174 0;
#X connect 228 0 164 0;
#X connect 231 0 171 0;
#X connect 232 0 186 0;
#X connect 233 0 225 0;
#X connect 234 0 116 0;
#X connect 235 0 189 0;
#X connect 235 0 164 0;
#X connect 236 0 201 0;
#X connect 236 0 164 0;
#X connect 237 0 169 0;
#X connect 238 0 184 0;
#X connect 239 0 240 0;
#X connect 240 0 243 0;
#X connect 243 0 242 0;
#X connect 245 0 246 0;
#X connect 246 0 244 0;
#X connect 246 0 251 0;
#X connect 247 0 246 1;
#X connect 248 0 246 2;
#X connect 249 0 246 3;
#X connect 250 0 246 4;
#X connect 251 0 164 0;
#X connect 252 0 124 0;
#X connect 254 0 253 0;
#X connect 255 0 254 1;
#X connect 255 0 254 0;
#X connect 256 0 257 0;
#X connect 257 0 258 0;
#X connect 258 0 259 0;
#X connect 259 0 258 1;
#X connect 259 0 260 0;
#X connect 259 0 262 0;
#X connect 260 0 261 1;
#X connect 260 0 261 0;
#X connect 261 0 259 0;
#X connect 262 0 263 0;
#X connect 262 1 264 0;
#X connect 263 0 265 0;
#X connect 265 0 127 0;
#X connect 266 0 267 0;
#X connect 266 0 268 0;
#X connect 266 0 269 0;
#X connect 267 0 214 2;
#X connect 270 0 269 1;
#X connect 271 0 269 2;
#X connect 272 0 273 0;
#X connect 272 0 274 0;
#X connect 273 0 214 2;
#X connect 275 0 274 1;
#X connect 276 0 274 2;
#X connect 279 0 4 0;
#X connect 279 0 5 0;
#X connect 279 0 0 0;
#X connect 279 0 215 0;
#X connect 279 1 1 0;
#X connect 279 1 2 0;
#X connect 279 1 215 1;
#X coords 0 -1 1 1 1300 230 2 75 500;
