#N canvas 218 23 1371 655 10;
#X obj 308 2 inlet;
#X obj 301 96 select 0;
#X obj 352 186 +;
#X obj 261 125 bng 15 250 50 0 empty empty empty 17 7 0 10 -262144
-1 -1;
#X obj 352 120 bng 15 250 50 0 empty empty empty 17 7 0 10 -262144
-1 -1;
#X obj 424 38 r pitch;
#X floatatom 352 209 5 0 0 0 - - -;
#X obj 347 311 outlet;
#X obj 508 37 r velocity;
#X obj 463 260 pack 0 0;
#X obj 705 110 loadbang;
#X floatatom 787 144 5 0 0 0 - - -;
#X floatatom 800 228 5 0 0 0 - - -;
#X obj 703 145 random 100;
#X obj 706 180 expr if($f1 < $f2 \, 1 \, 0);
#X obj 908 142 random 2;
#X obj 848 210 * 2;
#X obj 845 242 - 1;
#X obj 824 278 *;
#X obj 261 151 pack 0 0 0;
#X msg 261 185 \$2 \$3;
#X obj 804 65 r percentage;
#X floatatom 835 142 5 0 0 0 - - -;
#X obj 783 107 bng 15 250 50 0 empty empty empty 17 7 0 10 -262144
-1 -1;
#X obj 102 104 vsl 18 138 0 127 0 0 empty empty empty 0 -9 0 10 -262144
-1 -1 0 1;
#X msg 867 541 color \$1;
#X obj 231 400 mod 12;
#X obj 440 463 ==;
#X obj 480 463 ==;
#X obj 523 463 ==;
#X obj 564 462 ==;
#X obj 605 462 ==;
#X obj 94 466 ==;
#X obj 129 469 ==;
#X obj 167 468 ==;
#X obj 211 467 ==;
#X obj 251 468 ==;
#X obj 643 464 ==;
#X obj 683 465 ==;
#X obj 82 516 spigot;
#X obj 131 514 spigot;
#X obj 184 515 spigot;
#X obj 280 516 spigot;
#X obj 228 515 spigot;
#X obj 418 516 spigot;
#X obj 467 514 spigot;
#X obj 520 515 spigot;
#X obj 616 516 spigot;
#X obj 564 515 spigot;
#X obj 718 519 spigot;
#X obj 666 518 spigot;
#X obj 163 596 bng 15 250 50 0 empty empty empty 17 7 0 10 -262144
-1 -1;
#X obj 510 602 bng 15 250 50 0 empty empty empty 17 7 0 10 -262144
-1 -1;
#X msg 425 411 0;
#X msg 466 410 2;
#X msg 509 411 4;
#X msg 550 410 5;
#X msg 588 410 7;
#X msg 629 409 9;
#X msg 666 410 11;
#X obj 366 389 bng 15 250 50 0 empty empty empty 17 7 0 10 -262144
-1 -1;
#X msg 85 436 1;
#X msg 126 435 3;
#X msg 169 436 6;
#X msg 210 435 8;
#X msg 248 435 10;
#X msg 508 563 0;
#X msg 166 557 80;
#X text 543 584 86 y 103;
#X obj 648 299 tgl 15 0 empty empty empty 17 7 0 10 -262144 -1 -1 0
1;
#X floatatom 755 373 5 0 0 0 - - -;
#X obj 754 402 * 6;
#X obj 761 468 +;
#X obj 649 333 expr if($f1 > 0 \, 0 \, 1);
#X floatatom 812 374 5 0 0 0 - - -;
#X obj 808 467 +;
#X obj 811 403 * 86;
#X obj 490 138 pack 0 0;
#X msg 554 163 \$2;
#X text 661 585 Rojo: 133;
#X obj 911 337 expr if($f1 == 0 \, 0 \, 1);
#X floatatom 911 369 5 0 0 0 - - -;
#X obj 912 402 * 53;
#X obj 983 401 * 133;
#X obj 913 441 *;
#X obj 987 443 *;
#X obj 811 433 +;
#X obj 755 435 +;
#X obj 1064 77 r shortList;
#X obj 1065 227 cyclone/zl sub 0;
#X obj 352 142 pack 0 0;
#X msg 352 162 \$2;
#X obj 648 387 bng 15 250 50 0 empty empty empty 17 7 0 10 -262144
-1 -1;
#X floatatom 660 213 5 0 0 0 - - -;
#X obj 1065 264 expr if($f1 == 0 \, 0 \, 1);
#X obj 1234 224 cyclone/zl sub 0;
#X obj 1233 74 r excluded;
#X obj 1234 261 expr if($f1 == 0 \, 1 \, 0);
#X obj 552 118 bng 15 250 50 0 empty empty empty 17 7 0 10 -262144
-1 -1;
#X msg 233 89 1;
#X msg 265 89 0;
#X obj 310 48 select -1 -2;
#X floatatom 816 587 5 0 0 0 - - -;
#X floatatom 946 487 5 0 0 0 - - -;
#X connect 0 0 101 0;
#X connect 1 0 3 0;
#X connect 1 1 4 0;
#X connect 2 0 6 0;
#X connect 3 0 19 0;
#X connect 3 0 77 0;
#X connect 4 0 77 0;
#X connect 4 0 90 0;
#X connect 5 0 2 1;
#X connect 5 0 77 1;
#X connect 6 0 9 0;
#X connect 6 0 19 1;
#X connect 8 0 9 1;
#X connect 9 0 7 0;
#X connect 10 0 15 0;
#X connect 10 0 11 0;
#X connect 10 0 13 0;
#X connect 11 0 14 1;
#X connect 12 0 18 0;
#X connect 12 0 80 0;
#X connect 13 0 14 0;
#X connect 15 0 16 0;
#X connect 16 0 17 0;
#X connect 17 0 18 1;
#X connect 18 0 90 1;
#X connect 19 0 20 0;
#X connect 20 0 7 0;
#X connect 21 0 22 0;
#X connect 21 0 23 0;
#X connect 22 0 14 1;
#X connect 23 0 13 0;
#X connect 25 0 24 0;
#X connect 26 0 32 0;
#X connect 26 0 33 0;
#X connect 26 0 34 0;
#X connect 26 0 35 0;
#X connect 26 0 36 0;
#X connect 26 0 27 0;
#X connect 26 0 28 0;
#X connect 26 0 29 0;
#X connect 26 0 30 0;
#X connect 26 0 31 0;
#X connect 26 0 37 0;
#X connect 26 0 38 0;
#X connect 27 0 44 1;
#X connect 27 0 44 0;
#X connect 28 0 45 1;
#X connect 28 0 45 0;
#X connect 29 0 46 1;
#X connect 29 0 46 0;
#X connect 30 0 48 1;
#X connect 30 0 48 0;
#X connect 31 0 47 1;
#X connect 31 0 47 0;
#X connect 32 0 39 1;
#X connect 32 0 39 0;
#X connect 33 0 40 1;
#X connect 33 0 40 0;
#X connect 34 0 41 1;
#X connect 34 0 41 0;
#X connect 35 0 43 1;
#X connect 35 0 43 0;
#X connect 36 0 42 1;
#X connect 36 0 42 0;
#X connect 37 0 50 1;
#X connect 37 0 50 0;
#X connect 38 0 49 1;
#X connect 38 0 49 0;
#X connect 39 0 67 0;
#X connect 40 0 67 0;
#X connect 41 0 67 0;
#X connect 42 0 67 0;
#X connect 43 0 67 0;
#X connect 44 0 66 0;
#X connect 45 0 66 0;
#X connect 46 0 66 0;
#X connect 47 0 66 0;
#X connect 48 0 66 0;
#X connect 49 0 66 0;
#X connect 50 0 66 0;
#X connect 53 0 27 1;
#X connect 54 0 28 1;
#X connect 55 0 29 1;
#X connect 56 0 30 1;
#X connect 57 0 31 1;
#X connect 58 0 37 1;
#X connect 59 0 38 1;
#X connect 60 0 61 0;
#X connect 60 0 63 0;
#X connect 60 0 64 0;
#X connect 60 0 62 0;
#X connect 60 0 65 0;
#X connect 60 0 53 0;
#X connect 60 0 54 0;
#X connect 60 0 55 0;
#X connect 60 0 56 0;
#X connect 60 0 57 0;
#X connect 60 0 58 0;
#X connect 60 0 59 0;
#X connect 61 0 32 1;
#X connect 62 0 33 1;
#X connect 63 0 34 1;
#X connect 64 0 35 1;
#X connect 65 0 36 1;
#X connect 66 0 52 0;
#X connect 66 0 25 0;
#X connect 66 0 75 0;
#X connect 67 0 51 0;
#X connect 67 0 72 0;
#X connect 69 0 73 0;
#X connect 70 0 71 0;
#X connect 71 0 87 0;
#X connect 72 0 25 0;
#X connect 73 0 70 0;
#X connect 73 0 74 0;
#X connect 73 0 92 0;
#X connect 74 0 76 0;
#X connect 74 0 84 0;
#X connect 74 0 85 0;
#X connect 75 0 25 0;
#X connect 75 0 102 0;
#X connect 76 0 86 0;
#X connect 77 0 78 0;
#X connect 78 0 26 0;
#X connect 78 0 89 1;
#X connect 78 0 93 0;
#X connect 78 0 95 1;
#X connect 80 0 81 0;
#X connect 81 0 82 0;
#X connect 81 0 83 0;
#X connect 82 0 84 1;
#X connect 83 0 85 1;
#X connect 84 0 87 1;
#X connect 85 0 86 1;
#X connect 86 0 75 1;
#X connect 87 0 72 1;
#X connect 88 0 89 0;
#X connect 89 0 94 0;
#X connect 90 0 91 0;
#X connect 91 0 2 0;
#X connect 94 0 12 0;
#X connect 95 0 97 0;
#X connect 96 0 95 0;
#X connect 97 0 12 0;
#X connect 98 0 77 0;
#X connect 99 0 69 0;
#X connect 100 0 69 0;
#X connect 101 0 98 0;
#X connect 101 0 99 0;
#X connect 101 0 60 0;
#X connect 101 1 98 0;
#X connect 101 1 100 0;
#X connect 101 1 60 0;
#X connect 101 2 1 0;
#X connect 101 2 60 0;
#X connect 101 2 69 0;
#X coords 0 -1 1 1 20 150 2 100 100;
